<svg id="SvgjsSvg1016" width="288" height="288" xmlns="http://www.w3.org/2000/svg" version="1.1" xmlns:xlink="http://www.w3.org/1999/xlink" xmlns:svgjs="http://svgjs.com/svgjs"><defs id="SvgjsDefs1017"></defs><g id="SvgjsG1018"><svg xmlns="http://www.w3.org/2000/svg" xmlns:svgjs="http://svgjs.com/svgjs" xmlns:xlink="http://www.w3.org/1999/xlink" viewBox="0 0 288 288" width="288" height="288"><svg xmlns="http://www.w3.org/2000/svg" fill="none" viewBox="0 0 24 23" width="288" height="288"><path stroke="#212121" stroke-linecap="round" stroke-linejoin="round" stroke-width="2" d="M20 22C20.5523 22 21 21.5523 21 21 21 20.4477 20.5523 20 20 20 19.4477 20 19 20.4477 19 21 19 21.5523 19.4477 22 20 22zM9 22C9.55228 22 10 21.5523 10 21 10 20.4477 9.55228 20 9 20 8.44772 20 8 20.4477 8 21 8 21.5523 8.44772 22 9 22zM1 1H5L7.68 14.39C7.77144 14.8504 8.02191 15.264 8.38755 15.5583 8.75318 15.8526 9.2107 16.009 9.68 16H19.4C19.8693 16.009 20.3268 15.8526 20.6925 15.5583 21.0581 15.264 21.3086 14.8504 21.4 14.39L23 6H6" class="colorStrokefff svgStroke colorStroke000"></path></svg></svg></g></svg>